<mxfile host="app.diagrams.net" modified="2024-02-01T05:06:25.899Z" agent="Mozilla/5.0 (Windows NT 10.0; Win64; x64) AppleWebKit/537.36 (KHTML, like Gecko) Chrome/120.0.0.0 Safari/537.36" etag="CIxCUh70W5qBWaYJ5s6F" version="23.0.2" type="device">
  <diagram name="Page-1" id="Qn3DCEkGw_yaYb_WV9NJ">
    <mxGraphModel dx="934" dy="548" grid="1" gridSize="10" guides="1" tooltips="1" connect="1" arrows="1" fold="1" page="1" pageScale="1" pageWidth="827" pageHeight="1169" math="0" shadow="0">
      <root>
        <mxCell id="0" />
        <mxCell id="1" parent="0" />
        <mxCell id="JFRRbw18pwgN1PSgCvuK-9" style="edgeStyle=orthogonalEdgeStyle;rounded=0;orthogonalLoop=1;jettySize=auto;html=1;exitX=0;exitY=0.5;exitDx=0;exitDy=0;entryX=0;entryY=0.5;entryDx=0;entryDy=0;" edge="1" parent="1" source="JFRRbw18pwgN1PSgCvuK-1" target="JFRRbw18pwgN1PSgCvuK-3">
          <mxGeometry relative="1" as="geometry" />
        </mxCell>
        <mxCell id="JFRRbw18pwgN1PSgCvuK-1" value="shapetwod.h&lt;br&gt;&lt;br&gt;circle.h&lt;br&gt;square.h&lt;br&gt;rectangle.h&lt;br&gt;cross.h&lt;br&gt;&lt;br&gt;functions.h" style="rounded=1;whiteSpace=wrap;html=1;dashed=1;" vertex="1" parent="1">
          <mxGeometry x="40" y="30" width="90" height="140" as="geometry" />
        </mxCell>
        <mxCell id="JFRRbw18pwgN1PSgCvuK-10" style="edgeStyle=orthogonalEdgeStyle;rounded=0;orthogonalLoop=1;jettySize=auto;html=1;exitX=0;exitY=0.5;exitDx=0;exitDy=0;entryX=0;entryY=0.5;entryDx=0;entryDy=0;" edge="1" parent="1" source="JFRRbw18pwgN1PSgCvuK-2" target="JFRRbw18pwgN1PSgCvuK-3">
          <mxGeometry relative="1" as="geometry" />
        </mxCell>
        <mxCell id="JFRRbw18pwgN1PSgCvuK-2" value="circle.cpp&lt;br&gt;square.cpp&lt;br&gt;rectangle.cpp&lt;br&gt;cross.cpp&lt;br&gt;&lt;br&gt;functions.cpp" style="rounded=1;whiteSpace=wrap;html=1;dashed=1;" vertex="1" parent="1">
          <mxGeometry x="40" y="190" width="90" height="140" as="geometry" />
        </mxCell>
        <mxCell id="JFRRbw18pwgN1PSgCvuK-5" style="edgeStyle=orthogonalEdgeStyle;rounded=0;orthogonalLoop=1;jettySize=auto;html=1;exitX=1;exitY=0.5;exitDx=0;exitDy=0;entryX=0;entryY=0.5;entryDx=0;entryDy=0;" edge="1" parent="1" source="JFRRbw18pwgN1PSgCvuK-3" target="JFRRbw18pwgN1PSgCvuK-4">
          <mxGeometry relative="1" as="geometry" />
        </mxCell>
        <mxCell id="JFRRbw18pwgN1PSgCvuK-3" value="assn2.cpp" style="rounded=0;whiteSpace=wrap;html=1;" vertex="1" parent="1">
          <mxGeometry x="80" y="380" width="90" height="70" as="geometry" />
        </mxCell>
        <mxCell id="JFRRbw18pwgN1PSgCvuK-4" value="csci251_a2.app" style="rounded=0;whiteSpace=wrap;html=1;" vertex="1" parent="1">
          <mxGeometry x="270" y="380" width="120" height="70" as="geometry" />
        </mxCell>
        <mxCell id="JFRRbw18pwgN1PSgCvuK-7" value="" style="endArrow=none;dashed=1;html=1;dashPattern=1 3;strokeWidth=2;rounded=0;" edge="1" parent="1">
          <mxGeometry width="50" height="50" relative="1" as="geometry">
            <mxPoint x="200" y="490" as="sourcePoint" />
            <mxPoint x="200" y="10" as="targetPoint" />
          </mxGeometry>
        </mxCell>
        <mxCell id="JFRRbw18pwgN1PSgCvuK-8" value="makefile" style="text;html=1;strokeColor=none;fillColor=none;align=center;verticalAlign=middle;whiteSpace=wrap;rounded=0;" vertex="1" parent="1">
          <mxGeometry x="210" y="30" width="60" height="30" as="geometry" />
        </mxCell>
      </root>
    </mxGraphModel>
  </diagram>
</mxfile>
